<?xml version="1.0" encoding="UTF-8" standalone="no"?>
<!-- Created with Inkscape (http://www.inkscape.org/) -->

<svg
   id="svg2985"
   version="1.1"
   width="1001"
   height="207.5985"
   xml:space="preserve"
   xmlns="http://www.w3.org/2000/svg"
   xmlns:svg="http://www.w3.org/2000/svg"
   xmlns:rdf="http://www.w3.org/1999/02/22-rdf-syntax-ns#"
   xmlns:cc="http://creativecommons.org/ns#"
   xmlns:dc="http://purl.org/dc/elements/1.1/"><metadata
     id="metadata2991"><rdf:RDF><cc:Work
         rdf:about=""><dc:format>image/svg+xml</dc:format><dc:type
           rdf:resource="http://purl.org/dc/dcmitype/StillImage" /><dc:title /></cc:Work></rdf:RDF></metadata><defs
     id="defs2989"><clipPath
       clipPathUnits="userSpaceOnUse"
       id="clipPath4093"><path
         d="M 0,841.89 H 595.276 V 0 H 0 Z"
         id="path4095" /></clipPath><linearGradient
       x1="0"
       y1="0"
       x2="1"
       y2="0"
       gradientUnits="userSpaceOnUse"
       gradientTransform="matrix(45.273911,35.371857,35.371857,-45.273911,158.89258,582.24316)"
       spreadMethod="pad"
       id="linearGradient4079"><stop
         style="stop-opacity:1;stop-color:#00416b"
         offset="0"
         id="stop4081" /><stop
         style="stop-opacity:1;stop-color:#00b1eb"
         offset="0.899994"
         id="stop4083" /><stop
         style="stop-opacity:1;stop-color:#0083ca"
         offset="1"
         id="stop4085" /></linearGradient><linearGradient
       x1="0"
       y1="0"
       x2="1"
       y2="0"
       gradientUnits="userSpaceOnUse"
       gradientTransform="matrix(31.931656,0,0,-31.931656,158.67285,617.87598)"
       spreadMethod="pad"
       id="linearGradient4059"><stop
         style="stop-opacity:1;stop-color:#00416b"
         offset="0"
         id="stop4061" /><stop
         style="stop-opacity:1;stop-color:#002447"
         offset="1"
         id="stop4063" /></linearGradient><linearGradient
       x1="0"
       y1="0"
       x2="1"
       y2="0"
       gradientUnits="userSpaceOnUse"
       gradientTransform="matrix(-45.265732,-35.365463,-35.365463,45.265732,171.28955,607.83789)"
       spreadMethod="pad"
       id="linearGradient4037"><stop
         style="stop-opacity:1;stop-color:#ffdd00"
         offset="0"
         id="stop4039" /><stop
         style="stop-opacity:1;stop-color:#d09910"
         offset="0.899994"
         id="stop4041" /><stop
         style="stop-opacity:1;stop-color:#ffdd00"
         offset="1"
         id="stop4043" /></linearGradient><linearGradient
       x1="0"
       y1="0"
       x2="1"
       y2="0"
       gradientUnits="userSpaceOnUse"
       gradientTransform="matrix(-31.9207,0,0,31.9207,171.50146,572.20996)"
       spreadMethod="pad"
       id="linearGradient4017"><stop
         style="stop-opacity:1;stop-color:#d09910"
         offset="0"
         id="stop4019" /><stop
         style="stop-opacity:1;stop-color:#a65718"
         offset="1"
         id="stop4021" /></linearGradient></defs><g
     id="g2993"
     transform="matrix(1.25,0,0,-1.25,-1051.9696,1336.5406)"><g
       id="g4005"
       transform="matrix(0.24035082,0,0,0.24035082,813.37249,917.58185)"><g
         id="g4007"><g
           id="g4013"><g
             id="g4015"><path
               d="m 140.565,566.93 c -0.517,-0.643 -0.82,-1.465 -0.82,-2.353 v 0 c 0,-2.087 1.691,-3.787 3.798,-3.787 v 0 h 27.506 l -17.623,22.84 z"
               style="fill:url(#linearGradient4017);stroke:none"
               id="path4023" /></g></g></g></g><g
       id="g4025"
       transform="matrix(0.24035082,0,0,0.24035082,813.37249,917.58185)"><g
         id="g4027"><g
           id="g4033"><g
             id="g4035"><path
               d="m 139.794,606.461 c -2.585,0 -4.872,-1.226 -6.322,-3.13 v 0 l -13.878,-18.026 c -0.364,-0.466 -0.588,-1.04 -0.588,-1.675 v 0 c 0,-0.626 0.199,-1.192 0.563,-1.665 v 0 l 13.886,-18.012 0.092,-0.126 c 1.427,-1.81 3.618,-2.987 6.096,-3.037 v 0 h 0.095 1.639 2.166 c -2.107,0 -3.798,1.7 -3.798,3.787 v 0 c 0,0.888 0.303,1.71 0.82,2.353 v 0 l 12.861,16.7 17.623,22.831 z"
               style="fill:url(#linearGradient4037);stroke:none"
               id="path4045" /></g></g></g></g><g
       id="g4047"
       transform="matrix(0.24035082,0,0,0.24035082,813.37249,917.58185)"><g
         id="g4049"><g
           id="g4055"><g
             id="g4057"><path
               d="m 159.126,629.291 17.631,-22.83 12.87,16.675 c 0.497,0.66 0.814,1.473 0.814,2.359 v 0 c 0,2.097 -1.702,3.796 -3.8,3.796 v 0 z"
               style="fill:url(#linearGradient4059);stroke:none"
               id="path4065" /></g></g></g></g><g
       id="g4067"
       transform="matrix(0.24035082,0,0,0.24035082,813.37249,917.58185)"><g
         id="g4069"><g
           id="g4075"><g
             id="g4077"><path
               d="m 188.815,629.291 h -2.174 c 2.098,0 3.8,-1.699 3.8,-3.796 v 0 c 0,-0.886 -0.317,-1.699 -0.814,-2.359 v 0 l -12.87,-16.675 -17.631,-22.831 h 31.253 c 2.579,0 4.88,1.219 6.341,3.112 v 0 l 13.867,18.027 c 0.366,0.466 0.586,1.049 0.586,1.684 v 0 c 0,0.627 -0.213,1.192 -0.554,1.64 v 0 l -13.883,18.027 -0.09,0.137 c -1.438,1.8 -3.638,2.976 -6.098,3.026 v 0 c -0.045,0.008 -0.076,0.008 -0.107,0.008 v 0 z"
               style="fill:url(#linearGradient4079);stroke:none"
               id="path4087" /></g></g></g></g><g
       id="g4089"
       transform="matrix(0.24035082,0,0,0.24035082,813.37249,917.58185)"><g
         id="g4091"
         clip-path="url(#clipPath4093)"><g
           id="g4097"
           transform="translate(190.5972,623.1357)"><path
             d="m 0,0 c 0.518,0.661 0.817,1.473 0.817,2.36 0,2.097 -1.692,3.795 -3.791,3.795 h -0.982 c 2.098,0 3.8,-1.698 3.8,-3.795 0,-0.887 -0.317,-1.699 -0.814,-2.36 l -12.87,-16.675 -17.631,-22.831 z"
             style="fill:#00c0f3;fill-opacity:1;fill-rule:nonzero;stroke:none"
             id="path4099" /></g><g
           id="g4101"
           transform="translate(139.5757,566.9297)"><path
             d="m 0,0 c -0.499,-0.643 -0.813,-1.464 -0.813,-2.353 0,-2.086 1.706,-3.787 3.79,-3.787 h 0.99 c -2.107,0 -3.798,1.701 -3.798,3.787 0,0.889 0.304,1.71 0.82,2.353 L 13.85,16.7 31.473,39.531 Z"
             style="fill:#ffd400;fill-opacity:1;fill-rule:nonzero;stroke:none"
             id="path4103" /></g><g
           id="g4105"
           transform="translate(445.3198,582.0654)"><path
             d="m 0,0 c -1.297,0.575 -2.938,0.965 -4.729,1.403 -2.646,0.66 -5.099,0.805 -6.013,2.226 -0.85,1.319 -0.381,2.866 0.752,3.652 2.603,1.783 6.138,1.073 8.094,0.167 0.328,-0.143 1.781,-0.979 1.781,-0.979 0.195,-0.125 0.437,-0.203 0.697,-0.203 0.465,0 0.852,0.22 1.098,0.558 0.019,0.042 3.705,4.829 3.705,4.829 l -0.621,0.491 c -0.358,0.262 -0.868,0.625 -1.41,0.938 -1.108,0.625 -4.473,2.563 -9.362,2.563 h -0.43 C -17.16,15.39 -18.641,7.815 -18.641,5.142 c 0,-4.061 2.088,-6.977 5.235,-8.786 2.51,-1.455 7.273,-2.239 9.701,-2.976 1.26,-0.379 2.187,-1.253 2.535,-2.106 0.162,-0.371 0.248,-0.77 0.26,-1.192 0.045,-1.387 -0.707,-3.002 -2.789,-3.654 -2.309,-0.7 -5.951,-0.407 -9.25,2.183 -0.094,0.076 -0.465,0.364 -0.59,0.412 -0.162,0.062 -0.316,0.085 -0.504,0.085 -0.471,0 -0.84,-0.246 -1.103,-0.607 -0.053,-0.068 -3.67,-4.721 -3.67,-4.721 0,0 1.275,-1.054 1.697,-1.376 2.08,-1.565 5.81,-3.679 10.709,-3.679 h 0.187 C 4.08,-21.24 6.533,-13.927 6.533,-9.893 6.533,-5.793 4.023,-1.809 0,0"
             style="fill:#00416b;fill-opacity:1;fill-rule:nonzero;stroke:none"
             id="path4107" /></g><g
           id="g4109"
           transform="translate(330.1714,597.1328)"><path
             d="m 0,0 c -1.768,-0.025 -3.246,-0.245 -4.736,-0.684 -2.373,-0.743 -4.186,-2.046 -5.569,-3.863 -2.283,-3.028 -2.259,-6.621 -2.259,-6.621 v -25.099 h 6.712 c 0.424,0 0.78,0.355 0.78,0.78 v 23.861 c 0,0.481 0.072,2.114 1,2.969 0.74,0.667 1.738,0.989 2.715,1.133 1.087,0.16 2.097,0.084 2.601,0.016 0,0 0.102,-0.016 0.17,-0.016 0.488,0 0.91,0.272 1.149,0.66 l 3.433,5.91 C 4.084,-0.287 2.174,0.027 0,0"
             style="fill:#00416b;fill-opacity:1;fill-rule:nonzero;stroke:none"
             id="path4111" /></g><g
           id="g4113"
           transform="translate(310.3296,597.1328)"><path
             d="m 0,0 c -1.77,-0.025 -3.266,-0.245 -4.73,-0.684 -2.393,-0.743 -4.192,-2.046 -5.584,-3.863 -2.29,-3.028 -2.247,-6.621 -2.247,-6.621 v -25.099 h 6.706 c 0.416,0 0.773,0.355 0.773,0.78 v 23.861 c 0,0.481 0.061,2.114 1.004,2.969 0.736,0.667 1.742,0.989 2.721,1.133 1.091,0.16 2.08,0.084 2.587,0.016 0,0 0.12,-0.016 0.17,-0.016 0.493,0 0.922,0.272 1.159,0.66 l 3.433,5.91 C 4.072,-0.287 2.162,0.027 0,0"
             style="fill:#00416b;fill-opacity:1;fill-rule:nonzero;stroke:none"
             id="path4115" /></g><g
           id="g4117"
           transform="translate(251.2612,570.1602)"><path
             d="m 0,0 c -0.254,0.329 -0.65,0.54 -1.109,0.54 -0.262,0 -0.506,-0.067 -0.7,-0.193 L -1.844,0.338 c -2.281,-1.378 -4.963,-2.157 -7.83,-2.157 -8.414,0 -15.262,6.85 -15.262,15.271 0,8.414 6.848,15.272 15.262,15.272 2.867,0 5.539,-0.796 7.822,-2.147 0.213,-0.153 0.475,-0.22 0.743,-0.22 0.441,0 0.847,0.22 1.101,0.523 l 3.811,4.964 c -3.778,2.782 -8.432,4.415 -13.477,4.415 -12.572,0 -22.805,-10.233 -22.805,-22.807 0,-12.582 10.233,-22.822 22.805,-22.822 5.045,0 9.699,1.641 13.496,4.414 z"
             style="fill:#00416b;fill-opacity:1;fill-rule:nonzero;stroke:none"
             id="path4119" /></g><g
           id="g4121"
           transform="translate(353.5269,590.4463)"><path
             d="m 0,0 c 4.955,0 9.143,-3.215 10.629,-7.672 h -21.24 C -9.133,-3.215 -4.928,0 0,0 m 0,7.211 c -10.143,0 -18.408,-8.251 -18.408,-18.407 0,-10.055 8.269,-18.305 18.426,-18.418 h 0.541 c 4.017,0 7.214,0.542 11.462,3.299 l 0.688,0.446 c 0,0 -3.775,4.89 -3.813,4.95 -0.251,0.328 -0.64,0.522 -1.08,0.522 -0.252,0 -0.484,-0.059 -0.677,-0.175 C 6.188,-21.073 3.229,-22.4 0,-22.4 c -4.854,-0.01 -8.99,3.112 -10.545,7.439 h 25.207 l 2.91,0.019 c 0.436,0 0.791,0.345 0.791,0.768 l 0.041,2.158 c 0.01,0.271 0.03,0.547 0.03,0.82 C 18.434,-1.04 10.166,7.211 0,7.211"
             style="fill:#00416b;fill-opacity:1;fill-rule:nonzero;stroke:none"
             id="path4123" /></g><g
           id="g4125"
           transform="translate(377.0269,560.79)"><path
             d="m 0,0 c -0.428,0 -0.779,0.338 -0.783,0.754 v 34.153 c 0.004,0.406 0.336,0.752 0.748,0.768 h 5.953 c 0.432,0 0.787,-0.344 0.787,-0.778 V 0.771 C 6.705,0.347 6.35,0 5.918,0 Z"
             style="fill:#00416b;fill-opacity:1;fill-rule:nonzero;stroke:none"
             id="path4127" /></g><g
           id="g4129"
           transform="translate(274.9312,590.5469)"><path
             d="m 0,0 c -6.121,0 -11.111,-4.989 -11.111,-11.109 0,-6.14 4.99,-11.115 11.111,-11.115 6.139,0 11.123,4.975 11.123,11.115 C 11.123,-4.989 6.139,0 0,0 m 0,-29.757 c -10.277,0 -18.639,8.364 -18.639,18.648 0,10.273 8.362,18.627 18.639,18.627 10.285,0 18.641,-8.354 18.641,-18.627 0,-10.284 -8.356,-18.648 -18.641,-18.648"
             style="fill:#00416b;fill-opacity:1;fill-rule:nonzero;stroke:none"
             id="path4131" /></g><g
           id="g4133"
           transform="translate(405.9019,590.2744)"><path
             d="m 0,0 c -6.07,0 -11,-4.928 -11,-10.991 0,-6.062 4.93,-11.001 11,-11.001 6.064,0 10.996,4.939 10.996,11.001 C 10.996,-4.928 6.064,0 0,0 m 0,-29.434 c -10.17,0 -18.439,8.28 -18.439,18.443 0,10.174 8.269,18.442 18.439,18.442 10.17,0 18.447,-8.268 18.447,-18.442 0,-10.163 -8.277,-18.443 -18.447,-18.443"
             style="fill:#00416b;fill-opacity:1;fill-rule:nonzero;stroke:none"
             id="path4135" /></g></g></g></g></svg>
